<?xml version="1.0" encoding="UTF-8" standalone="no"?>
<!DOCTYPE svg PUBLIC "-//W3C//DTD SVG 1.1//EN" "http://www.w3.org/Graphics/SVG/1.1/DTD/svg11.dtd">
<!-- Created with Vectornator (http://vectornator.io/) -->
<svg height="100%" stroke-miterlimit="10" style="fill-rule:nonzero;clip-rule:evenodd;stroke-linecap:round;stroke-linejoin:round;" version="1.1" viewBox="0 0 107.9 120.41" width="100%" xml:space="preserve" xmlns="http://www.w3.org/2000/svg" xmlns:vectornator="http://vectornator.io" xmlns:xlink="http://www.w3.org/1999/xlink">
<defs/>
<g id="Layer-2" vectornator:layerName="Layer 2">
<path d="M58.7641 20.4943L58.7641 10.0785C30.0389 10.432 6.94691 32.7705 6.94691 60.205C6.94691 87.6395 30.0389 109.978 58.7641 110.332L58.7641 99.9157C73.7636 100.123 87.7176 92.6 95.2807 80.2282C102.844 67.8564 102.844 52.5536 95.2807 40.1818C87.7176 27.81 73.7636 20.2868 58.7641 20.4943ZM58.7641 78.8843L58.7641 89.2918C42.1436 89.0232 28.8172 76.0796 28.8172 60.205C28.8172 44.3304 42.1436 31.3868 58.7641 31.1182L58.7641 41.5257C65.8505 41.3828 72.4637 44.9115 76.0508 50.7496C79.638 56.5878 79.638 63.8222 76.0508 69.6604C72.4637 75.4985 65.8505 79.0272 58.7641 78.8843Z" fill="#000000" fill-rule="nonzero" opacity="1" stroke="none" vectornator:layerName="path"/>
</g>
</svg>
