<svg xmlns="http://www.w3.org/2000/svg" viewBox="0 0 565.81 161.13"><defs><style>.cls-1{fill:#fff;}</style></defs><g id="Layer_2" data-name="Layer 2"><g id="Layer_1-2" data-name="Layer 1"><path class="cls-1" d="M198.61,89.57a40.73,40.73,0,0,1-16.06-3.18,41.45,41.45,0,0,1-13.09-8.64,40.48,40.48,0,0,1-8.81-12.83,38.83,38.83,0,0,1-3.23-15.75,38.77,38.77,0,0,1,3.23-15.78,40.58,40.58,0,0,1,8.81-12.8A41.41,41.41,0,0,1,198.61,8.83a42.77,42.77,0,0,1,12.32,1.87,37.6,37.6,0,0,1,11.59,5.78,35.84,35.84,0,0,1,9.15,10A37.2,37.2,0,0,1,236.74,41h-18.3a22.54,22.54,0,0,0-3-7.22,18.12,18.12,0,0,0-4.61-4.88,18.37,18.37,0,0,0-5.92-2.77,26,26,0,0,0-6.83-.88,23.62,23.62,0,0,0-8.78,1.64,21.3,21.3,0,0,0-7.25,4.76,22.33,22.33,0,0,0-4.91,7.54,26.57,26.57,0,0,0-1.78,10,27.17,27.17,0,0,0,1.78,10.17,21.68,21.68,0,0,0,4.91,7.5,20.88,20.88,0,0,0,7.25,4.65,24.21,24.21,0,0,0,8.78,1.59,26,26,0,0,0,6.8-.88,18.81,18.81,0,0,0,5.89-2.75,17.83,17.83,0,0,0,4.62-4.84,22.92,22.92,0,0,0,3-7.23h18.36a37.49,37.49,0,0,1-5,14.48,35.74,35.74,0,0,1-9.12,10A38,38,0,0,1,211,87.7,43.36,43.36,0,0,1,198.61,89.57Z"/><path class="cls-1" d="M274.25,89.68a31.73,31.73,0,0,1-12.61-2.46,29.73,29.73,0,0,1-16.26-16.61,33.22,33.22,0,0,1,0-24.24,30.53,30.53,0,0,1,6.4-9.95,30,30,0,0,1,9.86-6.71,31.7,31.7,0,0,1,12.66-2.47,32,32,0,0,1,12.75,2.47A30.58,30.58,0,0,1,297,36.42a30.26,30.26,0,0,1,6.45,9.92,33.16,33.16,0,0,1,0,24.27A29.61,29.61,0,0,1,287,87.24,32.58,32.58,0,0,1,274.25,89.68Zm.17-16.09a14,14,0,0,0,5.63-1.11,12.82,12.82,0,0,0,4.45-3.11,14.4,14.4,0,0,0,2.92-4.79,18.36,18.36,0,0,0,0-12.24,14.5,14.5,0,0,0-2.92-4.79,13,13,0,0,0-4.45-3.11,14.86,14.86,0,0,0-11.27,0,13.05,13.05,0,0,0-4.45,3.11,14.67,14.67,0,0,0-2.92,4.79,18.53,18.53,0,0,0,0,12.24,14.57,14.57,0,0,0,2.92,4.79,12.92,12.92,0,0,0,4.45,3.11A14.12,14.12,0,0,0,274.42,73.59Z"/><path class="cls-1" d="M315.83,29.11h16.66v7.08a16,16,0,0,1,3.15-3.62,20.18,20.18,0,0,1,4.27-2.83,23.55,23.55,0,0,1,5.16-1.85,25.66,25.66,0,0,1,5.83-.65,25.18,25.18,0,0,1,10.43,2A18.71,18.71,0,0,1,368.64,35a25.52,25.52,0,0,1,4.3,9.15,47.7,47.7,0,0,1,1.42,12.18v31.5H356.91V56.71a21.2,21.2,0,0,0-.79-6.24,11.08,11.08,0,0,0-2.24-4.16A8.44,8.44,0,0,0,350.42,44a12.84,12.84,0,0,0-4.44-.74,12.43,12.43,0,0,0-4.79.94A11,11,0,0,0,337.14,47a14.26,14.26,0,0,0-2.81,4.84,20.17,20.17,0,0,0-1.05,6.83V87.81H315.83Z"/><path class="cls-1" d="M412.38,87.81a37.5,37.5,0,0,1-4.51-.28,19.81,19.81,0,0,1-4.61-1.14A16.7,16.7,0,0,1,399,84a14.44,14.44,0,0,1-3.57-4.11,22.79,22.79,0,0,1-2.44-6.21,37,37,0,0,1-.9-8.75V44H380.76V29.11H392V12.17l17.45-.11v17h15.86V44H409.49V65.71a11.18,11.18,0,0,0,.51,3.63,6.17,6.17,0,0,0,1.41,2.38,5.34,5.34,0,0,0,2.13,1.3,8.1,8.1,0,0,0,2.58.4h9.23V87.81Z"/><path class="cls-1" d="M435,29.11h16.71v8.27a16.76,16.76,0,0,1,5.36-6,14.84,14.84,0,0,1,8.53-2.3h6.8V44H466.6q-6.63,0-10.34,4.3t-3.71,12.52v27H435Z"/><path class="cls-1" d="M506.77,89.68a31.76,31.76,0,0,1-12.61-2.46A29.73,29.73,0,0,1,477.9,70.61a33.22,33.22,0,0,1,0-24.24,30.7,30.7,0,0,1,6.4-9.95,30,30,0,0,1,9.86-6.71,33.91,33.91,0,0,1,25.41,0A30,30,0,0,1,536,46.34a33.3,33.3,0,0,1,0,24.27,29.69,29.69,0,0,1-16.43,16.63A32.67,32.67,0,0,1,506.77,89.68Zm.17-16.09a14.12,14.12,0,0,0,5.64-1.11A12.88,12.88,0,0,0,517,69.37a14.4,14.4,0,0,0,2.92-4.79,18.36,18.36,0,0,0,0-12.24A14.5,14.5,0,0,0,517,47.55a13,13,0,0,0-4.44-3.11,14.88,14.88,0,0,0-11.28,0,13.05,13.05,0,0,0-4.45,3.11,14.48,14.48,0,0,0-2.91,4.79,18.36,18.36,0,0,0,0,12.24,14.38,14.38,0,0,0,2.91,4.79,12.92,12.92,0,0,0,4.45,3.11A14.12,14.12,0,0,0,506.94,73.59Z"/><path class="cls-1" d="M548.35,8h17.46V87.81H548.35Z"/><path class="cls-1" d="M182.36,150.59a21.74,21.74,0,0,1-7.52-1.19,16.44,16.44,0,0,1-5.35-3.11,12.55,12.55,0,0,1-3.19-4.35,12.06,12.06,0,0,1-1.06-4.9h3.9a8.53,8.53,0,0,0,.89,3.75,9.75,9.75,0,0,0,2.6,3.24,13.6,13.6,0,0,0,4.15,2.26,16.86,16.86,0,0,0,5.56.86,23.89,23.89,0,0,0,5.68-.61,12.32,12.32,0,0,0,4.23-1.84,8.05,8.05,0,0,0,2.65-3,9.28,9.28,0,0,0,.91-4.23,7.23,7.23,0,0,0-1-4,8.55,8.55,0,0,0-2.78-2.66,16,16,0,0,0-4.1-1.68,36.78,36.78,0,0,0-5-1q-2.8-.41-5.73-1.09a20.15,20.15,0,0,1-5.32-2A11.62,11.62,0,0,1,168,121.5a9.37,9.37,0,0,1-1.52-5.48,12.64,12.64,0,0,1,.83-4.55,10,10,0,0,1,2.69-3.91,13.49,13.49,0,0,1,4.89-2.75,23.44,23.44,0,0,1,7.42-1,22.29,22.29,0,0,1,6.68.92,14.26,14.26,0,0,1,4.87,2.57,10.83,10.83,0,0,1,3,3.86,11.6,11.6,0,0,1,1,4.88h-3.9a7.64,7.64,0,0,0-3.13-6.33,10.74,10.74,0,0,0-3.66-1.75,18,18,0,0,0-4.91-.62,19.46,19.46,0,0,0-5.74.73,10.18,10.18,0,0,0-3.67,2,6.94,6.94,0,0,0-1.93,2.79,9.67,9.67,0,0,0-.56,3.23,6.44,6.44,0,0,0,.94,3.53,7.8,7.8,0,0,0,2.71,2.53,16.35,16.35,0,0,0,4.31,1.69,45.19,45.19,0,0,0,5.72,1c1.15.15,2.33.35,3.54.59a24.88,24.88,0,0,1,3.57,1,20.11,20.11,0,0,1,3.32,1.55,11.62,11.62,0,0,1,2.76,2.25,10,10,0,0,1,1.88,3.13,11.3,11.3,0,0,1,.7,4.14,12.42,12.42,0,0,1-1.18,5.51,11.34,11.34,0,0,1-3.4,4.13,16.26,16.26,0,0,1-5.47,2.61A27.58,27.58,0,0,1,182.36,150.59Z"/><path class="cls-1" d="M203.74,157.83h5.56a7.19,7.19,0,0,0,2.79-.48,5.55,5.55,0,0,0,2-1.46,11,11,0,0,0,1.57-2.44c.47-1,1-2.14,1.47-3.46l.3-.82-13.62-32.95h4l10.87,26.5.73,2.51.83-2.48L231,116.22h4.1l-13.38,32.42c-.91,2.24-1.74,4.16-2.5,5.73a16.07,16.07,0,0,1-2.5,3.87,8.31,8.31,0,0,1-3.13,2.2,12.5,12.5,0,0,1-4.47.69h-5.42Z"/><path class="cls-1" d="M251.1,150.59a17.68,17.68,0,0,1-5.91-.91,13.08,13.08,0,0,1-4.27-2.43,10.16,10.16,0,0,1-2.59-3.47,9.9,9.9,0,0,1-.88-4.07h3.67a7.06,7.06,0,0,0,.71,3,7.28,7.28,0,0,0,1.95,2.43,9.78,9.78,0,0,0,3.13,1.65,13.37,13.37,0,0,0,4.23.61q4.43,0,6.76-1.75a5.72,5.72,0,0,0,2.33-4.83,5.33,5.33,0,0,0-.67-2.8,5,5,0,0,0-1.9-1.84,12,12,0,0,0-3-1.16c-1.18-.29-2.5-.56-3.95-.81a34.43,34.43,0,0,1-4.37-1,13.36,13.36,0,0,1-3.68-1.69,8,8,0,0,1-2.55-2.72,8.33,8.33,0,0,1-.94-4.13,9.05,9.05,0,0,1,.7-3.54,8.27,8.27,0,0,1,2.1-3,10.5,10.5,0,0,1,3.56-2.06,15,15,0,0,1,5.08-.78,17,17,0,0,1,5.12.73,12.55,12.55,0,0,1,3.9,2,8.92,8.92,0,0,1,2.5,3,8.35,8.35,0,0,1,.87,3.79l-3.77,0a5.65,5.65,0,0,0-.69-2.53,5.9,5.9,0,0,0-1.75-2,8.63,8.63,0,0,0-2.68-1.26,12.54,12.54,0,0,0-3.5-.45,10.64,10.64,0,0,0-3.36.48,7.11,7.11,0,0,0-2.39,1.31,5.34,5.34,0,0,0-1.44,1.92,5.62,5.62,0,0,0-.48,2.31,5.76,5.76,0,0,0,.46,2.43,4.41,4.41,0,0,0,1.52,1.75,9.52,9.52,0,0,0,2.75,1.26,36.36,36.36,0,0,0,4.16.94c1.39.22,2.8.5,4.25.84a14.51,14.51,0,0,1,3.93,1.54,8.53,8.53,0,0,1,2.91,2.76,8.06,8.06,0,0,1,1.14,4.51,9.47,9.47,0,0,1-.91,4.26,8.55,8.55,0,0,1-2.59,3.11,12.2,12.2,0,0,1-4.09,1.92A20.14,20.14,0,0,1,251.1,150.59Z"/><path class="cls-1" d="M285.08,149.7a14.28,14.28,0,0,1-3.77-.5,7.53,7.53,0,0,1-3.24-1.84,9.25,9.25,0,0,1-2.26-3.7,18.34,18.34,0,0,1-.84-6.06V119.65h-7.9v-3.43H275V106.1h3.8v10.12H290.7v3.43H278.77v18.08a13.58,13.58,0,0,0,.61,4.51,6.58,6.58,0,0,0,1.6,2.63,4.78,4.78,0,0,0,2.25,1.21,11.92,11.92,0,0,0,2.51.28h5v3.34Z"/><path class="cls-1" d="M327.42,132.05v.64c0,.21,0,.51-.07.91H298.2a15.28,15.28,0,0,0,1.29,5.55,13.92,13.92,0,0,0,2.89,4.22,12.67,12.67,0,0,0,4,2.67,11.88,11.88,0,0,0,4.63,1,13.55,13.55,0,0,0,3.53-.45,11.81,11.81,0,0,0,3.09-1.32,10.24,10.24,0,0,0,2.51-2.18,11.08,11.08,0,0,0,1.79-3h4.27a15.33,15.33,0,0,1-2.25,4.25,15.58,15.58,0,0,1-3.44,3.34,16.17,16.17,0,0,1-9.43,3,15.66,15.66,0,0,1-6.55-1.37,16.59,16.59,0,0,1-5.3-3.75,17.51,17.51,0,0,1-3.58-5.58,18.88,18.88,0,0,1,0-13.77,17.87,17.87,0,0,1,3.58-5.62,16.84,16.84,0,0,1,5.31-3.77,15.82,15.82,0,0,1,6.55-1.37,15.37,15.37,0,0,1,6.46,1.36,16.25,16.25,0,0,1,5.18,3.65,17,17,0,0,1,4.67,11.72Zm-3.9-1.85a11,11,0,0,0-1.16-4.29,12.15,12.15,0,0,0-2.71-3.57,12.78,12.78,0,0,0-3.92-2.44A12.23,12.23,0,0,0,311,119a12.57,12.57,0,0,0-4.39.78,12.16,12.16,0,0,0-3.82,2.24,13.38,13.38,0,0,0-4.44,8.19Z"/><path class="cls-1" d="M376.56,115.32q6.15,0,9.45,4t3.31,12.14V149.7h-3.77V131.52q0-6.48-2.61-9.54a9.12,9.12,0,0,0-7.34-3,9.74,9.74,0,0,0-4.19.94,11.29,11.29,0,0,0-3.57,2.62,12.84,12.84,0,0,0-2.48,4,13.75,13.75,0,0,0-.93,5.12v18h-3.76V131.52q0-6.51-2.63-9.55a9.11,9.11,0,0,0-7.29-3,9.86,9.86,0,0,0-4.21.94,11.57,11.57,0,0,0-3.61,2.62,12.86,12.86,0,0,0-2.49,4,13.75,13.75,0,0,0-.93,5.12v18h-3.76V116.22h3.63l0,7.5a11.76,11.76,0,0,1,1.81-3.31,13.15,13.15,0,0,1,2.76-2.66,12.87,12.87,0,0,1,3.53-1.78,13.08,13.08,0,0,1,4.13-.65,11.35,11.35,0,0,1,12.07,9.42,15.46,15.46,0,0,1,5.25-7A12.79,12.79,0,0,1,376.56,115.32Z"/><path class="cls-1" d="M72.87,15.14V0a72.88,72.88,0,0,0,0,145.75V130.61a57.74,57.74,0,1,0,0-115.47Zm0,84.89v15.13a42.29,42.29,0,0,1,0-84.58V45.72a27.16,27.16,0,1,1,0,54.31Z"/></g></g></svg>